<svg id="Слой_1" data-name="Слой 1" xmlns="http://www.w3.org/2000/svg" xmlns:xlink="http://www.w3.org/1999/xlink" viewBox="0 0 1920 1080"><defs><style>.cls-1{fill:none;}.cls-2{clip-path:url(#clip-path);}.cls-3{fill:#ffe600;}.cls-4{fill:#ffc200;}</style><clipPath id="clip-path"><rect class="cls-1" x="1.87" y="-1.67" width="1917.94" height="1082.71"/></clipPath></defs><title>Монтажная область 1 копия 2</title><g class="cls-2"><rect class="cls-3" x="0.84" y="-1.16" width="1922.01" height="1082.26"/><path class="cls-4" d="M1480.34,1865.82c-28.48,29.53-36.36,29.2-63-1.82-37.52-43.72-52.77-95.08-43.53-151.11,6.86-41.6-7.58-75.07-28.25-107.76-17.26-27.3-44.72-33.07-74.94-32.86-72.88.49-116.51-33.2-127.11-105.81-4.89-33.54,1.6-69.07,5.5-103.41,1.84-16.26,9.7-31.85,16.34-52.39-19.73,4.43-34.52,8.65-49.6,11-47.57,7.31-81.3-10.35-100.45-53.92-23.71-53.93-16-106.25,14.1-155.06,5.13-8.31,22.6-16.21,30.74-13.48,8.36,2.81,16.4,18.56,17.22,29.21,1.45,18.76-3,37.93-4.43,57-2,27.44,9.68,46.17,37.84,49.32s35.32-18.15,39.55-40.15a308,308,0,0,0,5.22-37.82c5-75.56,12.47-150.38,62.17-218.36-88.52-8.68-115.27-65.93-120.24-139.06-1-14.62,3.77-32.33,12.06-44.34,17.42-25.22,43.86-19.69,54.42,9.2,3.63,10,6.26,20.46,11.21,29.71,13.59,25.4,35.35,40.33,64.22,39.63,29.14-.71,48.79-17,60.71-44,23-52.15,23.59-107.12,22.94-162.51-.22-18.44-10.44-18.72-25.07-19.13-63.29-1.77-114.49-39.8-129-94.77-5.38-20.39-7.14-40.76,16.19-52.38,23.9-11.91,34.4,5.46,45.86,21.42,15.68,21.83,31.45,44.75,64.11,36.05,31.92-8.5,44.89-31.7,49.86-62.86,9-56.58,20-112.85,30-169.27.35-2-.39-4.15-.92-9-20.06-2-40.83-3.45-61.36-6.42-36.27-5.26-60.6-26.56-70-61.24-11.11-40.85-14.05-82.41,15.53-117.92,5.54-6.65,20.29-12.5,26.71-9.63s9.79,16.92,10.86,26.48c1,9.1-3.37,18.67-4.13,28.13-1.7,21.2,1,40.7,24,50.35,22.39,9.39,43.69,5.42,57.46-13.21,13.59-18.39,22.53-40.38,32.44-61.29,14.93-31.51,26.3-65,43.94-94.87,28.39-48,74-70.83,128.8-77.65,42.72-5.32,53-20.41,35.93-59.83-13.53-31.23-9-54.9,15.21-76.85,27.45-24.85,53.77-51.07,82.56-74.22,8-6.43,28.42-9.59,33.6-4.52,8,7.82,13,25.59,9.87,36.38-7.68,26.25-21.36,50.69-31.52,76.3-7.49,18.89-16,39.21,8.55,53,23.31,13.12,44.67,3.84,54.81-15.89,20.12-39.18,36.63-80.44,51.73-121.91,14.85-40.79,24.38-83.53,39.42-124.24,15.57-42.15,46.25-73.12,83.77-97.28,26-16.72,51.37-14.61,72.19,7.38,15.08,15.93,30.35,24.25,52.74,22,24.21-2.4,31.42,13.48,29.86,34.53-.54,7.27-3.09,14.56-5.69,21.48-20.76,55.38-28.72,113.66-34,171.75-2.1,23.24,3.4,53.57,17.55,70.64,39.7,47.92,54.37,100.55,45.27,160-5,32.95,4.61,55.56,28.83,78.23,74.63,69.86,120.1,155.72,131.28,258.4,4.48,41.17,6.86,82.73,14.51,123.3,3.15,16.71,14,36.72,27.64,45.84,47.53,31.8,69.4,75.32,73.15,130.77,7.5,110.77-34.22,207.88-82.78,303.23-12.35,24.26-24.8,48.46-31.61,78,12.12-7.19,23.67-15.73,36.54-21.11,8.88-3.71,22.49-7.29,28.62-3.09,5.61,3.85,7.28,19,5,27.79-9.72,38-21.27,75.58-32.61,113.17a283.65,283.65,0,0,1-68.36,116.92c-65.65,68.1-126.92,139.32-173.59,222.82-45.37,81.17-63.57,170.66-89.28,258.09a375,375,0,0,1-28.5,70.22c-10.9,20.45-29.16,20.48-44.72,4.49-11.71-12-20.35-27-30.85-40.26-13.21-16.7-27.29-19-42-1.42-111.68,133.71-215.78,157.11-373.06,84C1486.59,1867.11,1484.41,1866.88,1480.34,1865.82Zm455.05-317.89c13.13-17.32,24.37-28.88,31.79-42.53,27.35-50.32,52.53-101.84,80.48-151.82,10-17.83,12.79-29.35-6.86-41.72-20.27-12.77-22.18-32.45-12.5-53.2,5.82-12.48,15-23.8,18.59-36.78,2.79-10.22,3.29-25-2.21-32.83-18.77-26.64-18.76-35.93,11.28-50.23,49.43-23.54,82.2-61.84,106.46-109.7,8-15.7,17.89-33.29,31.86-42.59,81.39-54.18,103.49-139.07,120-226.59,3.16-16.76-2-35.67-6.16-52.91-1.5-6.25-11.28-14.61-17.19-14.53s-14.94,8.68-16.71,15.16c-19.09,69.62-66,119.87-114.83,169.15-52.93,53.41-109.5,104-156.81,162-57.68,70.76-111.47,144-182.33,203.15-22.23,18.54-37.48,45.6-55.24,69.28-10.13,13.51-9.78,26.13,8.36,32.62,68.63,24.58,104.6,80,134.09,141.5C1916.49,1504.3,1924.59,1523.7,1935.39,1547.94Zm-464.93-489.22c10.43-11.13,19.64-19.48,27.12-29.17,46.69-60.49,91.51-122.51,140-181.52,29.58-36,48.15-74.55,50.24-120.9,4.56-101.28,49.27-175.3,138.5-227.8,86.92-51.14,105.23-118.18,70.44-213A475.27,475.27,0,0,0,1875,236.76c-23-45.75-30.86-47.2-67.53-9.91-41.74,42.45-86.49,79.72-148.72,84.69-24.53,2-25.63,14.08-29.13,34.57-7,41.05-17.6,82.16-32.66,120.93-9.61,24.76-10.11,44.12-1.81,69.4,13.31,40.56,29.34,84.32,26.21,125.36-7.72,101.28-52.22,186.7-136.08,249.08-12.12,9-26.6,25.12-26.69,38C1458.4,983.17,1465.46,1017.47,1470.46,1058.71Zm52.31-314c5.39-10.93,17-31.29,25.7-52.81,18.33-45.29,2.14-92.28-35.94-108.58-40.22-17.22-84.81.45-101.5,49.73-17.85,52.66-26.58,108.5-37.89,163.24-3.27,15.82,6.47,23,22.94,21.22C1444.65,812.2,1486.11,793.83,1522.77,744.69Zm-132,478.56-8.81-6.17c-39.49,32.89-81.45,63.3-117.73,99.41-32.73,32.57-41.43,77.17-28.79,121.11,5,17.29,23.39,38.48,39.63,42.69,17.86,4.62,44.24-3.12,59.53-15,15.13-11.75,26.51-34.38,30-53.94C1375.74,1349.08,1382.42,1286,1390.81,1223.25ZM1216.17,1243c32.06-26.2,66-48.38,92.61-77.35,24.36-26.57,42.41-59.55,60-91.49,11.56-21,14.73-45.47-7.19-63.71-22.94-19.09-46-8.77-67.62,3.76C1232.31,1049.94,1192.64,1163.07,1216.17,1243Zm222.65-914.89c-8.68,32-19.48,63.53-25.37,96-4.61,25.41,9,38.92,36.55,38.61,45.57-.5,86.68-26.69,105.07-69.1,16.63-38.36,9.22-72.94-19.28-90C1503.66,284.34,1474.38,293,1438.81,328.15ZM1613.14,250l7.83,5.05c8.67-9.49,17.9-18.54,25.92-28.55,31.57-39.38,57.5-84.2,106.38-106.54,4.44-2,8-9.81,8.8-15.37,5.14-36.65-32.17-75.3-68.49-70-6.55,1-15.08,9.61-17.16,16.41-15,49.16-28.15,98.9-42.95,148.13C1628.23,216.59,1620,233.11,1613.14,250Zm-136.68-97.4c49-3.91,86.52-18.84,104.87-61,5.42-12.45,2.82-34.89-5.54-44.67-6.08-7.1-30.39-5.91-41.91.27C1494.69,68.24,1485.93,108.11,1476.46,152.64Z"/><path class="cls-4" d="M-15.69,687c43.72-8.11,64.19-43.42,86.76-83-47.82-11.17-88.15-8.36-118.45,26.23-8.95,10.22-13.3,32.38-8.31,44.24C-52.06,683.1-28.54,689.36-15.69,687Z"/><path class="cls-4" d="M310.49-232.82c-60.4,41.92-119.71,85.49-181.41,125.39C89.94-82.12,60.54-51.06,44.45-7.54Q30.13,31.22,9,61.58c-10.32,22.79-23.63,41.83-36.9,60.89-59.3,85.24-112.45,173-122.55,279.36,30.56-9.25,62.29-12.54,96.13-4.64,15,3.49,22.43.43,28.25-6.85-5.3-2.93-11.09-10.29-11.61-15.51-1.75-17.65-4.3-37.09,1.11-53.26,23.8-71.11,51.29-139.82,111.91-185.18,1.42-21.57,4.8-42.58,12.47-61.51C126-19.26,194.38-87.1,293.23-121a94.74,94.74,0,0,0,19.34-9.29c.75-1.05,1.48-2.12,2.17-3.2,12.42-19.24,13.21-39-5.13-54.41-17.78-14.94-13.42-26-1.11-42.27Z"/><path class="cls-4" d="M160.31,448.26c18-27.8,37.88-54.59,53.36-83.73,12.12-22.8,3.25-39.81-23.08-47.9C147,303.25,99.9,315.69,69.49,350.51c-27.51,31.49-31,66.68-9,91.64C85.21,470.28,115.75,470.89,160.31,448.26Z"/><path class="cls-4" d="M1319.51-4.33c-13-45.77-44-67.87-92.16-67.11-15.26.24-30.48,2.4-50.64,4.1C1186.09-86.8,1196-101.16,1200-117c8.54-33.49,19.82-67.8,19.55-101.7-.6-73.39-39.22-112.71-111.49-122.16-30-3.92-56.38-13.38-69.76-42.78-16-35.21-25.77-70.33-13.3-110.61,16.8-54.24,8.69-107.2-22.52-155.63-22.14-34.35-29.9-35.75-62.14-10.39-3.89-1.6-6-2.12-7.75-3.24-103.79-66.85-187.58-81.54-273.72-42.2,11,9.17,24.85,15.22,40,19.93,69.58,21.7,100.9,67.06,88.91,139.46-5.54,33.44-22.54,65.31-36.69,96.84-6.7,14.93-18.93,27.39-31.5,44.94,20.14,1.78,35.52,2.26,50.59,4.64,47.54,7.51,74.3,34.59,79.29,81.91,6.18,58.58-17.06,106.09-60.59,143.42-7.42,6.36-26.46,8.57-33.38,3.49-7.11-5.22-10-22.66-7.52-33.06,4.33-18.31,14.44-35.21,21.55-52.93,10.24-25.54,4.83-46.93-21-58.49s-39.17,6.55-49.89,26.22a308,308,0,0,0-16.48,34.44C654.43-184.42,624.52-115.42,556.5-65.78c81.69,35.19,89.76,97.86,72.25,169-3.5,14.23-13.42,29.65-25,38.57-24.27,18.73-47.78,5.42-49-25.31-.44-10.59.26-21.39-1.64-31.71C547.89,56.48,531.69,35.64,504,27.52c-28-8.19-51.66,1.38-71.22,23.47C395,93.66,377.71,145.86,361.49,198.82c-5.4,17.64,4.25,21,18.06,25.85,59.75,20.94,97,72.73,94.05,129.51-1.08,21.06-5.6,41-31.36,45-26.39,4.08-31.11-15.67-37.18-34.35-8.3-25.57-16.35-52.2-50.11-53.84-33-1.61-52.4,16.54-66.62,44.71C262.54,406.84,235,457.12,208.3,507.81c-.94,1.78-.89,4.07-1.85,8.81,18.49,8.05,37.84,15.7,56.5,24.78,33,16,49.66,43.73,48.09,79.64-1.84,42.29-11.68,82.78-50.66,107.61-7.3,4.65-23.13,5.74-28.38,1s-4.18-19.1-2.29-28.52c1.8-9,8.89-16.76,12.49-25.54,8.06-19.68,11.44-39.07-7.55-55.27-18.47-15.76-40-18.45-58.76-4.89-18.54,13.38-33.74,31.61-49.55,48.52-23.81,25.48-44.83,53.94-70.72,77-37.88,33.76-83,43.3-131.67,37.11,8,81.47,40,154.84,93,220.18,20.9,25.76,27.38,49.48,17.89,81.43-17.12,57.66-9.76,111.81,23,164.69,11.68,18.84,13,49.64,7.75,72.37-13.12,56.83-29,113.48-57.08,165.51-3.51,6.5-7,13.38-8.56,20.51-4.41,20.64.56,37.36,24.87,38.28,22.48.85,36.48,11.18,49.24,29,17.63,24.63,42.51,30.18,70.51,17.16,40.46-18.81,75.07-45.31,96.25-84.94,20.45-38.28,35.72-79.32,56-117.7,20.61-39,42.6-77.64,67.87-113.71,12.73-18.17,35.16-24.45,56.46-8.27,22.43,17,11.24,36,1.24,53.7-13.56,24-30.44,46.33-41.62,71.29-4.6,10.26-2,28.56,4.82,37.39,4.44,5.73,25.1,5.39,33.9.11,31.68-19,61.33-41.4,91.91-62.27,27-18.44,34.7-41.27,25.55-74.05-11.54-41.37.7-54.92,43.75-54.37,55.18.71,103.51-15.65,138.18-59.36,21.55-27.17,37.38-58.81,56.47-88,12.67-19.37,24.52-39.93,40.5-56.3,16.18-16.58,37.83-17.61,58.73-5.25,21.48,12.7,21.48,32.38,16.91,53.15-2,9.27-7.69,18.15-7.93,27.3-.25,9.61,1.14,24,7.14,27.71s21.38-.06,27.78-5.89c34.15-31.15,36.9-72.72,31.47-114.7-4.61-35.65-25.81-60.07-61-70.22-19.94-5.75-40.31-10-59.91-14.73.13-4.83-.31-7.08.31-9,17.63-54.52,36.14-108.78,52.79-163.6,9.18-30.19,25.19-51.4,58-55.47,33.54-4.17,46,20.69,58.59,44.46,9.17,17.37,17.21,36,42.51,27.47,24.69-8.34,25.73-28.75,23.18-49.68-6.86-56.44-52.4-101.09-114.86-111.48-14.44-2.4-24.53-4.07-22.23-22.37,6.91-55,14.95-109.34,44.88-157.86,15.49-25.11,37.18-38.6,66.14-35.32,28.69,3.24,48.22,21,58.21,48,3.64,9.84,4.81,20.61,7,31,6.51,30.06,32,39.14,52.65,16.53,9.86-10.76,17-27.65,18-42.28,5.05-73.13-13.64-133.48-100.15-154.16,58.51-60.56,76.14-133.66,91.36-207.84a308,308,0,0,1,10.33-36.76c7.19-21.22,17.07-41.37,44.66-34.38s36.47,27.1,30.76,54c-4,18.68-11,37.05-12.16,55.84-.64,10.66,5.17,27.36,13.08,31.28,7.68,3.82,26.07-1.62,32.29-9.16C1320.88,103.11,1335.64,52.33,1319.51-4.33ZM392.8,918.77c-41.41,31.94-49,29.43-65.55-19a475.27,475.27,0,0,1-14.76-52.07C291,749,318.24,685.1,411.32,646.29,506.87,606.44,561.26,539.2,579.59,439.5c8.39-45.63,32-81.28,66.25-112.92,56.07-51.85,108.93-107.18,163.43-160.74,8.73-8.58,19-15.6,30.84-25.2-.67,41.54,1.65,76.48-3.25,110.38-1.85,12.78-18.39,26.76-31.63,34C713.67,335.41,657.93,414,636.47,513.25c-8.7,40.23,1.22,85.77,8.87,127.77,4.77,26.18,1.64,45.28-11.26,68.5-20.2,36.36-36.3,75.64-48.84,115.35-6.26,19.82-9,31.68-33.57,30.28C489.35,851.59,439.94,882.41,392.8,918.77Zm168.62,51.15c-21.37,46.75-41.15,94.24-62.74,140.89-3,6.45-12.62,13.86-19.24,13.91-36.71.31-68.4-43.06-58.31-78.67,1.53-5.4,6.14-12.62,10.81-14,51.47-15.47,83.27-56.34,119.92-91,9.32-8.82,19.69-16.53,29.57-24.75l7.07,6.07C579.39,938.14,569,953.38,561.42,969.92ZM639.37,1134c-12.25,4.55-36.5,2.42-41.55-5.45-7-10.83-6.47-33.42.6-45,23.93-39.27,63.18-48.94,112.21-46.14C695.17,1080.26,681.05,1118.56,639.37,1134Zm170.71-357c-10.26,31.36-25.26,61.16-38.22,91.64-40,29.93-70.21,34.57-99.41,11.09-25.9-20.83-28.52-56.09-6.82-91.83,24-39.51,68.3-59.85,113.51-54.13C806.45,737.28,818.1,752.52,810.07,777.06Zm90.67-363.15c-18.67,52.69-34.94,106.81-59.8,156.55-23.26,46.54-69.84,58-107.34,35.42-35.5-21.34-45.13-70.1-20.8-112.47,11.57-20.13,25.83-38.72,32.66-48.81,43-43.68,86.59-56.23,135.44-54.84C897.47,390.24,906.14,398.68,900.75,413.91Zm108.14-205.16c-23.16,9.46-47.38,16.54-67.5-5.5-19.23-21.06-12.75-44.9,1.56-64.1,21.8-29.23,44.17-59.45,71.93-82.45,30.27-25.08,67-42.41,102.3-64C1129.57,75.15,1074.85,181.81,1008.88,208.75Zm70.65-295.36C1038.66-55.78,993-31.38,949.35-4.18l-7.89-7.31c16.87-61,32.09-122.6,51.59-182.78,6.13-18.9,20.48-39.77,37.07-49.34,16.76-9.67,44-13.74,61-6.73,15.51,6.38,30.87,29.88,33.44,47.69C1131.1-157.4,1116.4-114.41,1079.54-86.61Z"/><path class="cls-4" d="M279.5,166.29c26.57-36,48.15-75.77,69.85-115.31-13,12.3-25.94,24.62-39.05,36.83-40.5,37.73-85.44,70.72-130.25,103.81C211.9,210.08,252.28,203.17,279.5,166.29Z"/></g></svg>